<svg id="Layer_5" enable-background="new 0 0 64 64" height="512" viewBox="0 0 64 64" width="512" xmlns="http://www.w3.org/2000/svg"><g><path d="m19 41c-2.206 0-4 1.794-4 4s1.794 4 4 4 4-1.794 4-4-1.794-4-4-4zm0 6c-1.103 0-2-.897-2-2s.897-2 2-2 2 .897 2 2-.897 2-2 2z"/><path d="m16.059 39.774c1.797-1.014 4.086-1.014 5.883 0l.747.422 4.932-6.275-.905-.599c-2.297-1.519-4.964-2.322-7.716-2.322s-5.419.803-7.715 2.322l-.905.599 4.932 6.275zm8.617-5.344-2.528 3.219c-.994-.426-2.067-.649-3.148-.649s-2.154.223-3.147.648l-2.528-3.219c3.482-1.876 7.868-1.876 11.351.001z"/><path d="m13.774 47.941c-.506-.898-.774-1.915-.774-2.941s.268-2.043.774-2.941l.422-.747-6.275-4.931-.599.904c-1.519 2.295-2.322 4.963-2.322 7.715s.803 5.42 2.322 7.715l.599.904 6.275-4.931zm-2.126.206-3.218 2.529c-.939-1.74-1.43-3.683-1.43-5.676s.491-3.936 1.43-5.676l3.219 2.528c-.426.994-.649 2.067-.649 3.148s.223 2.154.648 3.147z"/><path d="m21.941 50.226c-1.797 1.014-4.086 1.014-5.883 0l-.747-.422-4.931 6.275.904.599c2.296 1.519 4.964 2.322 7.716 2.322s5.42-.803 7.715-2.322l.904-.599-4.931-6.275zm-8.617 5.344 2.528-3.219c1.986.852 4.309.852 6.295 0l2.528 3.219c-3.48 1.877-7.87 1.877-11.351 0z"/><path d="m33 45c0-2.752-.803-5.42-2.322-7.715l-.599-.904-6.275 4.931.422.747c.506.898.774 1.915.774 2.941s-.268 2.043-.774 2.941l-.422.747 6.275 4.931.599-.904c1.519-2.295 2.322-4.963 2.322-7.715zm-3.43 5.676-3.219-2.528c.426-.994.649-2.067.649-3.148s-.223-2.154-.648-3.147l3.219-2.528c.938 1.739 1.429 3.682 1.429 5.675s-.491 3.936-1.43 5.676z"/><path d="m60 17h-32.063l31.47-8.058c1.077-.225 1.773-1.29 1.553-2.375l-.813-3.961c-.108-.528-.416-.982-.865-1.277-.447-.293-.982-.395-1.55-.275l-44.488 11.589c-1.321.344-2.244 1.538-2.244 2.903v13.354c-5.917 2.952-10 9.051-10 16.1 0 9.925 8.075 18 18 18 4.273 0 8.198-1.503 11.288-4h29.712c1.654 0 3-1.346 3-3v-36c0-1.654-1.346-3-3-3zm1 3v3h-1.122l-1.6-4h1.722c.552 0 1 .449 1 1zm-13.2-10.15-2.283.585 1.839-4.606 2.292-.597zm4.252-5.245 3.169-.825-1.854 4.644-3.167.811zm-8.934 6.444-3.168.811 1.832-4.581 3.17-.825zm-5.568 1.425-2.282.584 1.819-4.557 2.291-.596zm-4.681 1.199-3.168.811 1.812-4.531 3.17-.825zm-5.568 1.425-2.727.698 1.799-4.505 2.736-.712zm-5.126 1.313-1.175.301v-4.022l2.969-.773zm-1.175 2.589h.928l1.596 4h-2.524zm4.678 4-1.596-4h2.841l1.6 4zm4.999 0-1.6-4h2.451l1.596 4zm4.601 0-1.596-4h2.841l1.6 4zm4.999 0-1.6-4h2.851l1.596 4zm5.001 0-1.596-4h2.841l1.6 4zm4.999 0-1.6-4h2.452l1.597 4zm4.603 0-1.597-4h2.84l1.6 4zm3.308-19.992.766 3.986-3.188.816 1.859-4.656zm-44.44 11.57 5.252-1.367v9.789h-6v-7.454c0-.455.308-.853.748-.968zm-10.748 30.422c0-8.822 7.178-16 16-16s16 7.178 16 16-7.178 16-16 16-16-7.178-16-16zm57 12h-27.622c2.863-3.189 4.622-7.388 4.622-12 0-9.925-8.075-18-18-18-2.106 0-4.12.383-6 1.05v-3.05h48v31c0 .552-.448 1-1 1z"/><path d="m39 55h20v-12h-20zm2-10h16v8h-16z"/><path d="m39 41h20v-12h-20zm2-10h16v8h-16z"/></g></svg>